<?xml version="1.0" standalone="no"?>
<!DOCTYPE svg PUBLIC "-//W3C//DTD SVG 20010904//EN"
 "http://www.w3.org/TR/2001/REC-SVG-20010904/DTD/svg10.dtd">
<svg version="1.0" xmlns="http://www.w3.org/2000/svg"
 width="1100.000000pt" height="1100.000000pt" viewBox="0 0 1100.000000 1100.000000"
 preserveAspectRatio="xMidYMid meet">
<metadata>
Created by potrace 1.11, written by Peter Selinger 2001-2013
</metadata>
<g transform="translate(0.000000,1100.000000) scale(0.100000,-0.100000)"
fill="#000000" stroke="none">
<path d="M850 10970 c0 -13 -7 -20 -20 -20 -12 0 -20 -7 -20 -18 0 -9 9 -377
20 -817 11 -440 27 -1104 35 -1475 9 -371 33 -1413 55 -2315 22 -902 44 -1845
50 -2095 15 -649 30 -819 99 -1149 183 -862 662 -1599 1391 -2142 681 -507
1532 -816 2520 -916 219 -22 785 -25 995 -5 723 68 1324 230 1900 512 1103
541 1830 1439 2066 2551 70 331 84 501 99 1154 6 253 26 1104 45 1890 19 787
48 2017 65 2735 16 718 34 1465 40 1660 5 195 10 381 10 413 l0 57 -4675 0
c-4668 0 -4675 0 -4675 -20z m2788 -1821 c1064 -1372 1631 -2103 1798 -2318
66 -86 293 -379 504 -651 211 -272 532 -686 712 -919 181 -233 325 -427 321
-431 -4 -4 -89 -69 -188 -145 -99 -77 -211 -163 -249 -192 -38 -30 -72 -52
-76 -51 -8 3 -20 19 -461 588 -151 195 -448 578 -659 850 -930 1200 -1230
1587 -1430 1846 -140 182 -460 595 -715 923 -415 533 -632 813 -751 966 -68
88 -149 192 -180 232 -30 40 -53 77 -49 82 13 21 499 391 509 388 6 -2 417
-527 914 -1168z m4912 976 c131 -102 242 -190 246 -196 3 -5 -20 -42 -50 -82
-31 -40 -112 -144 -180 -232 -68 -88 -222 -286 -343 -441 -120 -155 -303 -391
-407 -525 -105 -134 -251 -323 -326 -419 -75 -96 -212 -274 -306 -395 -94
-121 -301 -389 -460 -595 -160 -206 -393 -508 -518 -670 -126 -162 -236 -303
-245 -313 -16 -16 -29 -2 -224 250 -131 169 -204 270 -198 277 5 6 211 272
458 591 247 319 622 803 833 1075 211 272 609 785 883 1140 603 778 566 732
583 726 8 -3 122 -89 254 -191z m-6045 -1178 c143 -185 263 -336 266 -337 4 0
62 43 129 95 68 53 127 92 131 88 25 -28 919 -1186 918 -1191 0 -4 -54 -47
-119 -97 -66 -49 -119 -95 -120 -100 0 -6 65 -96 145 -199 80 -104 144 -192
143 -197 -2 -4 -138 -112 -303 -240 -165 -128 -381 -295 -479 -371 -144 -112
-181 -137 -191 -126 -6 7 -58 73 -115 146 -100 130 -102 134 -84 152 10 10
120 95 244 190 124 95 229 176 234 181 12 11 -192 271 -207 262 -7 -4 -118
-89 -249 -190 -130 -101 -241 -183 -246 -183 -8 0 -134 157 -254 317 -9 11 80
82 569 456 95 73 171 137 170 144 -2 12 -733 959 -746 967 -5 4 -246 -175
-274 -203 -6 -6 88 -136 245 -338 140 -180 257 -333 261 -339 7 -12 -443 -369
-464 -369 -9 0 -389 484 -389 495 1 3 57 48 126 100 69 52 131 102 138 110 12
13 0 32 -78 133 -51 64 -97 122 -103 128 -9 9 -46 -15 -142 -90 -72 -56 -136
-103 -143 -106 -14 -5 -243 285 -243 306 0 15 946 749 960 745 6 -1 127 -154
270 -339z m6755 -26 c261 -202 475 -373 475 -380 0 -22 -229 -311 -243 -306
-7 3 -71 50 -143 106 -96 75 -133 99 -142 90 -6 -6 -52 -64 -103 -128 -78
-101 -90 -120 -78 -133 7 -8 69 -58 138 -110 69 -52 125 -97 126 -100 0 -11
-380 -495 -389 -495 -5 0 -113 80 -240 179 -157 121 -228 182 -223 191 4 7
120 157 257 334 138 178 250 327 250 333 0 5 -61 56 -135 114 l-135 104 -28
-33 c-60 -70 -722 -929 -724 -940 -1 -7 75 -71 170 -144 480 -367 578 -445
569 -456 -121 -161 -246 -317 -254 -317 -5 0 -116 82 -246 183 -131 101 -242
187 -249 190 -14 9 -219 -251 -207 -262 5 -5 110 -86 234 -181 124 -95 234
-180 244 -190 18 -18 16 -22 -84 -152 -57 -73 -108 -139 -115 -146 -10 -11
-34 3 -126 75 -63 49 -235 183 -384 298 -148 115 -314 243 -367 284 -54 42
-98 79 -98 83 0 3 65 91 145 194 80 104 145 193 145 199 -1 5 -54 51 -120 100
-65 50 -119 93 -119 97 -1 5 893 1163 918 1191 4 4 63 -35 131 -88 67 -52 126
-95 129 -95 4 0 18 15 31 33 29 39 420 546 467 605 19 23 37 42 41 42 4 0 221
-166 482 -369z m-3990 -3016 c106 -137 197 -255 201 -261 5 -6 -29 -58 -85
-130 -51 -65 -218 -281 -371 -479 -442 -570 -457 -590 -465 -593 -3 -1 -92 63
-196 144 -104 80 -219 169 -256 197 -43 32 -64 55 -60 63 4 7 113 149 242 316
130 167 359 462 510 656 150 194 276 349 280 345 4 -4 94 -120 200 -258z
m-1318 -1063 c28 -18 339 -257 530 -409 99 -78 119 -99 129 -132 24 -79 -38
-161 -120 -161 -44 0 -31 -9 -306 204 -121 93 -249 192 -285 220 -136 104
-162 144 -140 210 27 83 116 115 192 68z m3245 2 c57 -36 75 -120 37 -171 -11
-15 -52 -53 -91 -83 -334 -260 -538 -418 -561 -432 -59 -38 -150 -9 -178 57
-33 80 -15 109 148 237 339 266 482 375 521 396 45 24 82 23 124 -4z m-4292
-145 c165 -22 326 -72 515 -161 101 -47 107 -51 128 -97 19 -43 53 -72 344
-298 178 -137 333 -255 345 -261 12 -7 38 -12 57 -12 32 0 42 -8 106 -82 91
-106 199 -266 256 -381 86 -170 144 -391 144 -549 0 -206 -80 -437 -212 -612
-236 -314 -574 -464 -998 -443 -247 13 -342 37 -885 225 -284 99 -313 111
-354 153 -61 61 -448 654 -518 793 -72 145 -133 315 -159 452 -21 106 -23 320
-5 412 81 413 402 758 789 848 138 32 270 36 447 13z m5620 -9 c299 -59 561
-264 712 -557 84 -162 117 -299 117 -488 -1 -324 -106 -596 -405 -1046 -284
-430 -285 -431 -355 -464 -48 -23 -348 -129 -619 -220 -434 -145 -803 -152
-1114 -21 -375 158 -651 567 -651 964 0 158 58 379 144 549 57 115 165 275
256 381 58 68 76 82 100 82 16 0 40 4 55 10 32 12 641 481 673 518 13 15 25
40 29 55 5 23 20 35 86 68 336 169 674 228 972 169z m-4747 -87 c105 -72 630
-486 640 -506 20 -42 22 -59 12 -97 -15 -57 -60 -90 -120 -90 -55 0 -19 -25
-463 318 -130 101 -244 193 -252 205 -57 81 6 197 106 197 23 0 51 -10 77 -27z
m3598 8 c60 -36 79 -121 39 -178 -8 -12 -122 -104 -252 -205 -444 -343 -408
-318 -463 -318 -37 0 -55 6 -79 26 -53 45 -61 125 -18 176 21 25 551 438 631
492 46 31 98 34 142 7z"/>
<path d="M2665 4391 c-305 -82 -548 -308 -651 -602 -35 -100 -44 -274 -19
-368 42 -162 154 -312 316 -422 81 -55 272 -149 303 -149 6 0 19 27 28 59 46
157 190 251 341 223 70 -13 109 -40 142 -97 53 -90 51 -208 -7 -298 -28 -44
-124 -127 -160 -139 -31 -11 179 -246 288 -324 142 -102 294 -150 445 -141
361 22 684 363 739 781 31 230 -56 456 -225 583 -153 115 -350 175 -609 186
l-60 2 -41 120 c-108 315 -264 500 -485 576 -92 31 -250 36 -345 10z"/>
<path d="M8047 4395 c-244 -62 -416 -253 -532 -590 l-41 -120 -60 -2 c-424
-17 -708 -178 -803 -456 -34 -98 -45 -206 -32 -308 45 -347 279 -655 575 -754
257 -86 519 -5 747 231 97 101 168 196 151 202 -36 12 -132 95 -160 139 -58
90 -60 208 -7 298 33 57 72 84 142 97 151 28 295 -66 341 -223 9 -32 22 -59
28 -59 31 0 222 94 303 149 163 111 279 267 316 423 87 370 -193 811 -603 948
-117 40 -267 50 -365 25z"/>
</g>
</svg>
